<svg xmlns="http://www.w3.org/2000/svg">

    <symbol fill="none" id="services-button">
        <circle cx="20.5" cy="20.5" r="20.5" fill="#191A23" />
        <path
            d="M11.25 24.701C10.5326 25.1152 10.2867 26.0326 10.701 26.75C11.1152 27.4674 12.0326 27.7133 12.75 27.299L11.25
            24.701ZM30.7694 16.3882C30.9838 15.588 30.5089 14.7655 29.7087 14.5511L16.6687 11.0571C15.8685 10.8426 15.046 11.3175 
            14.8316 12.1177C14.6172 12.9179 15.0921 13.7404 15.8923 13.9548L27.4834 17.0607L24.3776 28.6518C24.1631 29.452
            24.638 30.2745 25.4382 30.4889C26.2384 30.7033 27.0609 30.2284 27.2753 29.4282L30.7694 16.3882ZM12.75
            27.299L30.0705 17.299L28.5705 14.701L11.25 24.701L12.75 27.299Z"
            fill="#B9FF66" />
    </symbol>

    <symbol fill="none" id="services-button-white">
        <circle cx="20.5" cy="20.5" r="20.5" fill="white" />
        <path
            d="M11.25 24.701C10.5326 25.1152 10.2867 26.0326 10.701 26.75C11.1152 27.4674 12.0326 27.7133 12.75 27.299L11.25
            24.701ZM30.7694 16.3882C30.9838 15.588 30.5089 14.7655 29.7087 14.5511L16.6687 11.0571C15.8685 10.8426 15.046 11.3175 
            14.8316 12.1177C14.6172 12.9179 15.0921 13.7404 15.8923 13.9548L27.4834 17.0607L24.3776 28.6518C24.1631 29.452
            24.638 30.2745 25.4382 30.4889C26.2384 30.7033 27.0609 30.2284 27.2753 29.4282L30.7694 16.3882ZM12.75
            27.299L30.0705 17.299L28.5705 14.701L11.25 24.701L12.75 27.299Z"
            fill="black" />
    </symbol>

    <symbol fill="none" id="green-arrow">
        <path
            d="M1.25 13.701C0.532561 14.1152 0.286748 15.0326 0.700962 15.75C1.11518 16.4674 2.03256 16.7133 2.75 16.299L1.25 13.701ZM20.7694 5.38823C20.9838 4.58803 20.5089 3.76552 19.7087 3.55111L6.66874 0.0570541C5.86854 -0.157359 5.04603 0.317515 4.83162 1.11771C4.61721 1.91791 5.09208 2.74042 5.89228 2.95483L17.4834 6.06066L14.3776 17.6518C14.1631 18.452 14.638 19.2745 15.4382 19.4889C16.2384 19.7033 17.0609 19.2284 17.2753 18.4282L20.7694 5.38823ZM2.75 16.299L20.0705 6.29904L18.5705 3.70096L1.25 13.701L2.75 16.299Z"
            fill="#B9FF66" />
    </symbol>

    <symbol fill="none" id="minus">
        <circle cx="29" cy="29.5" r="28.5" fill="#F3F3F3" stroke="#191A23" />
        <path d="M20 32.14V26.5H37.76V32.14H20Z" fill="black" />
    </symbol>

    <symbol fill="none" id="plus">
        <circle cx="29" cy="29.5" r="28.5" fill="#F3F3F3" stroke="#191A23" />
        <path d="M25.6 41.58V31.86H16V26.22H25.6V16.5H31.48V26.22H41.08V31.86H31.48V41.58H25.6Z"
            fill="#191A23" />
    </symbol>

    <symbol fill="none" id="team-link">
        <circle cx="17" cy="17" r="17" fill="black" />
        <path d="M9.31776 25H12.8131V13.6844H9.31776V25Z" fill="#B9FF66" />
        <path
            d="M9 10.0719C9 11.1875 9.90031 12.0906 11.0654 12.0906C12.1776 12.0906 13.0779 11.1875 13.0779 10.0719C13.0779 8.95625 12.1776 8 11.0654 8C9.90031 8 9 8.95625 9 10.0719Z"
            fill="#B9FF66" />
        <path
            d="M22.4517 25H26V18.7844C26 15.7562 25.3115 13.3656 21.7632 13.3656C20.0685 13.3656 18.9034 14.3219 18.4268 15.225H18.3738V13.6844H15.0374V25H18.5327V19.4219C18.5327 17.9344 18.7975 16.5 20.6511 16.5C22.4517 16.5 22.4517 18.2 22.4517 19.475V25Z"
            fill="#B9FF66" />
    </symbol>

    <symbol fill="none" id="arrow-left">
        <path
            d="M22 13.5C22.8284 13.5 23.5 12.8284 23.5 12C23.5 11.1716 22.8284 10.5 22 10.5L22 
            13.5ZM0.939341 10.9393C0.353554 11.5251 0.353554 12.4749 0.93934 13.0607L10.4853 
            22.6066C11.0711 23.1924 12.0208 23.1924 12.6066 22.6066C13.1924 22.0208 13.1924 
            21.0711 12.6066 20.4853L4.12132 12L12.6066 3.51472C13.1924 2.92893 13.1924 1.97918
             12.6066 1.3934C12.0208 0.807611 11.0711 0.807611 10.4853 1.3934L0.939341
             10.9393ZM22 10.5L2 10.5L2 13.5L22 13.5L22 10.5Z"
            fill="white" fill-opacity="1" />
    </symbol>

    <symbol fill="none" id="reviews-button">
        <path
            d="M7.0099 2.05941L14 0L11.9604 7.0099L14 14L7.0099 11.9604L0 14L2.05941 7.0099L0 0L7.0099 2.05941Z"
            fill="white" />
    </symbol>

    <symbol fill="none" id="arrow-right">
        <path
            d="M2 10.5C1.17157 10.5 0.5 11.1716 0.5 12C0.5 12.8284 1.17157 13.5 2 13.5L2
             10.5ZM23.0607 13.0607C23.6464 12.4749 23.6464 11.5251 23.0607 10.9393L13.5147 
             1.3934C12.9289 0.807613 11.9792 0.807613 11.3934 1.3934C10.8076 1.97919 10.8076
              2.92893 11.3934 3.51472L19.8787 12L11.3934 20.4853C10.8076 21.0711 10.8076
               22.0208 11.3934 22.6066C11.9792 23.1924 12.9289 23.1924 13.5147 
               22.6066L23.0607 13.0607ZM2 13.5L22 13.5L22 10.5L2 10.5L2 13.5Z"
            fill="white" />
    </symbol>

</svg>