<svg xmlns="http://www.w3.org/2000/svg">

    <symbol fill="none" id="services-button">
        <circle cx="20.5" cy="20.5" r="20.5" fill="#191A23" />
        <path
            d="M11.25 24.701C10.5326 25.1152 10.2867 26.0326 10.701 26.75C11.1152 27.4674 12.0326 27.7133 12.75 27.299L11.25
            24.701ZM30.7694 16.3882C30.9838 15.588 30.5089 14.7655 29.7087 14.5511L16.6687 11.0571C15.8685 10.8426 15.046 11.3175 
            14.8316 12.1177C14.6172 12.9179 15.0921 13.7404 15.8923 13.9548L27.4834 17.0607L24.3776 28.6518C24.1631 29.452
            24.638 30.2745 25.4382 30.4889C26.2384 30.7033 27.0609 30.2284 27.2753 29.4282L30.7694 16.3882ZM12.75
            27.299L30.0705 17.299L28.5705 14.701L11.25 24.701L12.75 27.299Z"
            fill="#B9FF66" />
    </symbol>

    <symbol fill="none" id="services-button-white">
        <circle cx="20.5" cy="20.5" r="20.5" fill="white" />
        <path
            d="M11.25 24.701C10.5326 25.1152 10.2867 26.0326 10.701 26.75C11.1152 27.4674 12.0326 27.7133 12.75 27.299L11.25
            24.701ZM30.7694 16.3882C30.9838 15.588 30.5089 14.7655 29.7087 14.5511L16.6687 11.0571C15.8685 10.8426 15.046 11.3175 
            14.8316 12.1177C14.6172 12.9179 15.0921 13.7404 15.8923 13.9548L27.4834 17.0607L24.3776 28.6518C24.1631 29.452
            24.638 30.2745 25.4382 30.4889C26.2384 30.7033 27.0609 30.2284 27.2753 29.4282L30.7694 16.3882ZM12.75
            27.299L30.0705 17.299L28.5705 14.701L11.25 24.701L12.75 27.299Z"
            fill="black" />
    </symbol>

    <symbol fill="none" id="green-arrow">
        <path
            d="M1.25 13.701C0.532561 14.1152 0.286748 15.0326 0.700962 15.75C1.11518 16.4674 2.03256 16.7133 2.75 16.299L1.25 13.701ZM20.7694 5.38823C20.9838 4.58803 20.5089 3.76552 19.7087 3.55111L6.66874 0.0570541C5.86854 -0.157359 5.04603 0.317515 4.83162 1.11771C4.61721 1.91791 5.09208 2.74042 5.89228 2.95483L17.4834 6.06066L14.3776 17.6518C14.1631 18.452 14.638 19.2745 15.4382 19.4889C16.2384 19.7033 17.0609 19.2284 17.2753 18.4282L20.7694 5.38823ZM2.75 16.299L20.0705 6.29904L18.5705 3.70096L1.25 13.701L2.75 16.299Z"
            fill="#B9FF66" />
    </symbol>

    <symbol fill="none" id="minus">
        <circle cx="29" cy="29.5" r="28.5" fill="#F3F3F3" stroke="#191A23" />
        <path d="M20 32.14V26.5H37.76V32.14H20Z" fill="black" />
    </symbol>

    <symbol fill="none" id="plus">
        <circle cx="29" cy="29.5" r="28.5" fill="#F3F3F3" stroke="#191A23" />
        <path d="M25.6 41.58V31.86H16V26.22H25.6V16.5H31.48V26.22H41.08V31.86H31.48V41.58H25.6Z"
            fill="#191A23" />
    </symbol>

    <symbol fill="none" id="team-link">
        <circle cx="17" cy="17" r="17" fill="black" />
        <path d="M9.31776 25H12.8131V13.6844H9.31776V25Z" fill="#B9FF66" />
        <path
            d="M9 10.0719C9 11.1875 9.90031 12.0906 11.0654 12.0906C12.1776 12.0906 13.0779 11.1875 13.0779 10.0719C13.0779 8.95625 12.1776 8 11.0654 8C9.90031 8 9 8.95625 9 10.0719Z"
            fill="#B9FF66" />
        <path
            d="M22.4517 25H26V18.7844C26 15.7562 25.3115 13.3656 21.7632 13.3656C20.0685 13.3656 18.9034 14.3219 18.4268 15.225H18.3738V13.6844H15.0374V25H18.5327V19.4219C18.5327 17.9344 18.7975 16.5 20.6511 16.5C22.4517 16.5 22.4517 18.2 22.4517 19.475V25Z"
            fill="#B9FF66" />
    </symbol>

    <symbol fill="none" id="arrow-left">
        <path
            d="M22 13.5C22.8284 13.5 23.5 12.8284 23.5 12C23.5 11.1716 22.8284 10.5 22 10.5L22 
            13.5ZM0.939341 10.9393C0.353554 11.5251 0.353554 12.4749 0.93934 13.0607L10.4853 
            22.6066C11.0711 23.1924 12.0208 23.1924 12.6066 22.6066C13.1924 22.0208 13.1924 
            21.0711 12.6066 20.4853L4.12132 12L12.6066 3.51472C13.1924 2.92893 13.1924 1.97918
             12.6066 1.3934C12.0208 0.807611 11.0711 0.807611 10.4853 1.3934L0.939341
             10.9393ZM22 10.5L2 10.5L2 13.5L22 13.5L22 10.5Z"
            fill="white" fill-opacity="1" />
    </symbol>

    <symbol fill="none" id="reviews-button">
        <path
            d="M7.0099 2.05941L14 0L11.9604 7.0099L14 14L7.0099 11.9604L0 14L2.05941 7.0099L0 0L7.0099 2.05941Z"
            fill="white" />
    </symbol>

    <symbol fill="none" id="arrow-right">
        <path
            d="M2 10.5C1.17157 10.5 0.5 11.1716 0.5 12C0.5 12.8284 1.17157 13.5 2 13.5L2
             10.5ZM23.0607 13.0607C23.6464 12.4749 23.6464 11.5251 23.0607 10.9393L13.5147 
             1.3934C12.9289 0.807613 11.9792 0.807613 11.3934 1.3934C10.8076 1.97919 10.8076
              2.92893 11.3934 3.51472L19.8787 12L11.3934 20.4853C10.8076 21.0711 10.8076
               22.0208 11.3934 22.6066C11.9792 23.1924 12.9289 23.1924 13.5147 
               22.6066L23.0607 13.0607ZM2 13.5L22 13.5L22 10.5L2 10.5L2 13.5Z"
            fill="white" />
    </symbol>

    <symbol fill="none" id="social-in">
        <circle cx="15" cy="15" r="15" fill="white" />
        <path d="M8.22178 22.0586H11.3059V12.0742H8.22178V22.0586Z" fill="black" />
        <path
            d="M7.94141 8.88672C7.94141 9.87109 8.7358 10.668 9.76384 10.668C10.7451 10.668 11.5395 9.87109 11.5395 8.88672C11.5395 7.90234 10.7451 7.05859 9.76384 7.05859C8.7358 7.05859 7.94141 7.90234 7.94141 8.88672Z"
            fill="black" />
        <path
            d="M19.8106 22.0586H22.9414V16.5742C22.9414 13.9023 22.3339 11.793 19.2031 11.793C17.7078 11.793 16.6797 12.6367 16.2592 13.4336H16.2124V12.0742H13.2685V22.0586H16.3526V17.1367C16.3526 15.8242 16.5863 14.5586 18.2218 14.5586C19.8106 14.5586 19.8106 16.0586 19.8106 17.1836V22.0586Z"
            fill="black" />
    </symbol>

    <symbol fill="none" id="social-facebook">
        <path
            d="M30 15.0913C30 6.75456 23.2863 0 15 0C6.71371 0 0 6.75456 0 15.0913C0 22.6369 5.44355 28.9047 12.6411 30V19.4726H8.83064V15.0913H12.6411V11.8053C12.6411 8.03245 14.879 5.90264 18.2661 5.90264C19.9597 5.90264 21.6532 6.2069 21.6532 6.2069V9.91886H19.7782C17.9032 9.91886 17.2984 11.0751 17.2984 12.2921V15.0913H21.4718L20.8065 19.4726H17.2984V30C24.496 28.9047 30 22.6369 30 15.0913Z"
            fill="white" />
    </symbol>

    <symbol fill="none" id="social-twitter">
        <circle cx="15" cy="15" r="15" fill="white" />
        <path
            d="M21.9961 11.4915C22.6854 10.9745 23.3058 10.3541 23.7884 9.63028C23.168 9.90602 22.4442 10.1128 21.7204 10.1818C22.4786 9.73369 23.0301 9.04435 23.3058 8.18267C22.6165 8.59628 21.8238 8.90648 21.031 9.07881C20.3417 8.35501 19.4111 7.94141 18.3771 7.94141C16.378 7.94141 14.758 9.56135 14.758 11.5604C14.758 11.8362 14.7925 12.1119 14.8614 12.3876C11.8628 12.2153 9.1744 10.7677 7.38212 8.59628C7.07192 9.11328 6.89959 9.73369 6.89959 10.423C6.89959 11.6638 7.51999 12.7668 8.51953 13.4216C7.93359 13.3872 7.34766 13.2493 6.86512 12.9736V13.008C6.86512 14.7659 8.10593 16.2135 9.76034 16.5581C9.48461 16.6271 9.13994 16.696 8.82973 16.696C8.58847 16.696 8.38166 16.6615 8.1404 16.6271C8.58847 18.0747 9.93267 19.1087 11.5182 19.1432C10.2773 20.1082 8.72633 20.6942 7.03745 20.6942C6.72725 20.6942 6.45152 20.6597 6.17578 20.6252C7.76126 21.6592 9.65694 22.2452 11.725 22.2452C18.3771 22.2452 21.9961 16.7649 21.9961 11.974C21.9961 11.8017 21.9961 11.6638 21.9961 11.4915Z"
            fill="black" />
    </symbol>

    <symbol fill="none" id="menu">
        <path fill="#000000" fill-rule="evenodd"
            d="M19 4a1 1 0 01-1 1H2a1 1 0 010-2h16a1 1 0 011
             1zm0 6a1 1 0 01-1 1H2a1 1 0 110-2h16a1 1 0 011 1zm-1 
             7a1 1 0 100-2H2a1 1 0 100 2h16z" />
    </symbol>

    <symbol stroke-width="3" fill="white" id="exit-menu">
        <polyline points="46.02 21.95 55.93 31.86 46.02 41.77" />
        <line x1="55.93" y1="31.86" x2="19.59" y2="31.86" />
        <path
            d="M40,38.18V52a2.8,2.8,0,0,1-2.81,2.8H12A2.8,2.8,0,0,1,9.16,52V11.77A2.8,2.8,0,0,1,12,9H37.19A2.8,2.8,0,0,1,40,11.77V25" />
    </symbol>

</svg>